<svg xmlns="http://www.w3.org/2000/svg" version="1.1" xmlns:xlink="http://www.w3.org/1999/xlink" xmlns:svgjs="http://svgjs.dev/svgjs" width="1500" height="253" viewBox="0 0 1500 253"><g transform="matrix(1,0,0,1,-0.9090909090906507,0.9183347614853119)"><svg viewBox="0 0 396 67" data-background-color="#ffffff" preserveAspectRatio="xMidYMid meet" height="253" width="1500" xmlns="http://www.w3.org/2000/svg" xmlns:xlink="http://www.w3.org/1999/xlink"><g id="tight-bounds" transform="matrix(1,0,0,1,0.23999999999992383,-0.2431953716186399)"><svg viewBox="0 0 395.5199999999999 67.48639074323731" height="67.48639074323731" width="395.5199999999999"><g><svg viewBox="0 0 493.56263756490716 84.21511178946234" height="67.48639074323731" width="395.5199999999999"><g><rect width="4.92957294566957" height="84.21511178946234" x="80.20842340020735" y="0" fill="#61777f" opacity="1" stroke-width="0" stroke="transparent" fill-opacity="1" class="rect-qz-0" data-fill-palette-color="primary" rx="1%" id="qz-0" data-palette-color="#61777f"></rect></g><g transform="matrix(1,0,0,1,98.04263756490721,0.20949032783448018)"><svg viewBox="0 0 395.52 83.79613113379338" height="83.79613113379338" width="395.52"><g id="textblocktransform"><svg viewBox="0 0 395.52 83.79613113379338" height="83.79613113379338" width="395.52" id="textblock"><g><svg viewBox="0 0 395.52 54.663079766813595" height="54.663079766813595" width="395.52"><g transform="matrix(1,0,0,1,0,0)"><svg width="395.52" viewBox="4.5 -37 351.62 48.6" height="54.663079766813595" data-palette-color="#61777f"><path d="M9.25 0L4.5 0 4.5-34.9Q6.55-35.15 9.03-35.27 11.5-35.4 14.15-35.4L14.15-35.4Q18.5-35.4 21.55-34.02 24.6-32.65 26.2-30.25 27.8-27.85 27.8-24.75L27.8-24.75Q27.8-21 25.95-18.4 24.1-15.8 20.8-14.43 17.5-13.05 13.15-13.05L13.15-13.05Q11.05-13.05 9.25-13.2L9.25-13.2 9.25 0ZM13.75-17L13.75-17Q18.2-17 20.65-19 23.1-21 23.1-24.35L23.1-24.35Q23.1-27.6 20.75-29.5 18.4-31.4 14.05-31.4L14.05-31.4Q12.7-31.4 11.5-31.35 10.3-31.3 9.25-31.2L9.25-31.2 9.25-17.25Q10.05-17.15 11.2-17.07 12.35-17 13.75-17ZM43.25 0.6L43.25 0.6Q39.55 0.6 36.6-1.13 33.65-2.85 31.97-5.93 30.3-9 30.3-13L30.3-13Q30.3-17.2 32-20.25 33.7-23.3 36.65-24.95 39.6-26.6 43.25-26.6L43.25-26.6Q46.9-26.6 49.82-24.95 52.75-23.3 54.47-20.28 56.2-17.25 56.2-13.1L56.2-13.1Q56.2-8.95 54.5-5.88 52.8-2.8 49.87-1.1 46.95 0.6 43.25 0.6ZM43.25-3.4L43.25-3.4Q47.2-3.4 49.4-6.08 51.6-8.75 51.6-13L51.6-13Q51.6-15.6 50.5-17.78 49.4-19.95 47.52-21.28 45.65-22.6 43.25-22.6L43.25-22.6Q39.3-22.6 37.1-20 34.9-17.4 34.9-13.1L34.9-13.1Q34.9-10.5 36-8.28 37.1-6.05 38.97-4.73 40.85-3.4 43.25-3.4ZM70.1 0.6L70.1 0.6Q67.8 0.6 65.95-0.28 64.1-1.15 63.02-3.1 61.95-5.05 61.95-8.15L61.95-8.15 61.95-37 66.45-37 66.45-8.6Q66.45-5.9 67.57-4.6 68.7-3.3 70.7-3.3L70.7-3.3Q71.65-3.3 72.57-3.53 73.5-3.75 74.15-4.05L74.15-4.05 75.25-0.4Q74.35 0 73.02 0.3 71.7 0.6 70.1 0.6ZM83.99 0L79.49 0 79.49-26 83.99-26 83.99 0ZM81.74-30.45L81.74-30.45Q80.44-30.45 79.52-31.4 78.59-32.35 78.59-33.6L78.59-33.6Q78.59-35.05 79.44-35.9 80.29-36.75 81.74-36.75L81.74-36.75Q83.04-36.75 83.97-35.83 84.89-34.9 84.89-33.6L84.89-33.6Q84.89-32.2 84.04-31.33 83.19-30.45 81.74-30.45ZM102.49 0.6L102.49 0.6Q98.79 0.6 96.02-1.13 93.24-2.85 91.74-5.93 90.24-9 90.24-13L90.24-13Q90.24-16.75 91.77-19.85 93.29-22.95 96.14-24.78 98.99-26.6 102.84-26.6L102.84-26.6Q105.04-26.6 106.72-26.2 108.39-25.8 109.94-25.05L109.94-25.05 108.59-21.25Q107.19-21.95 105.92-22.28 104.64-22.6 103.09-22.6L103.09-22.6Q99.59-22.6 97.22-20.08 94.84-17.55 94.84-13.1L94.84-13.1Q94.84-10.4 95.84-8.2 96.84-6 98.62-4.7 100.39-3.4 102.79-3.4L102.79-3.4Q104.69-3.4 106.04-3.83 107.39-4.25 108.94-5.05L108.94-5.05 110.34-1.25Q108.79-0.4 106.87 0.1 104.94 0.6 102.49 0.6ZM116.24 11.6L116.24 11.6Q114.74 11.6 113.61 11.3 112.49 11 111.84 10.6L111.84 10.6 112.84 6.85Q113.44 7.2 114.34 7.45 115.24 7.7 116.34 7.7L116.34 7.7Q118.44 7.7 120.09 6.35 121.74 5 123.24 1.05L123.24 1.05 124.39-1.95 121.99-1.95 111.84-24.8 115.84-26.6 125.54-4.95 133.09-26.4 137.24-24.8 127.69 1.3Q126.24 5.3 124.54 7.55 122.84 9.8 120.79 10.7 118.74 11.6 116.24 11.6ZM146.99 0L142.24 0 142.24-34.9Q144.29-35.15 146.76-35.27 149.24-35.4 151.89-35.4L151.89-35.4Q156.24-35.4 159.29-34.02 162.34-32.65 163.94-30.25 165.54-27.85 165.54-24.75L165.54-24.75Q165.54-21 163.69-18.4 161.84-15.8 158.54-14.43 155.24-13.05 150.89-13.05L150.89-13.05Q148.79-13.05 146.99-13.2L146.99-13.2 146.99 0ZM151.49-17L151.49-17Q155.94-17 158.39-19 160.84-21 160.84-24.35L160.84-24.35Q160.84-27.6 158.49-29.5 156.14-31.4 151.79-31.4L151.79-31.4Q150.44-31.4 149.24-31.35 148.04-31.3 146.99-31.2L146.99-31.2 146.99-17.25Q147.79-17.15 148.94-17.07 150.09-17 151.49-17ZM178.53 0.6L178.53 0.6Q176.28 0.6 174.28-0.35 172.28-1.3 171.03-3.43 169.78-5.55 169.78-9.1L169.78-9.1 169.78-26 174.28-26 174.28-9.7Q174.28-6.65 175.58-5.03 176.88-3.4 179.38-3.4L179.38-3.4Q181.43-3.4 183.36-4.23 185.28-5.05 186.78-6.45L186.78-6.45 186.78-26 191.28-26 191.28-6.75Q191.28-4.6 192.21-3.93 193.13-3.25 194.23-3.25L194.23-3.25 193.28 0.25Q188.63 0.25 187.53-3.45L187.53-3.45Q185.78-1.65 183.48-0.53 181.18 0.6 178.53 0.6ZM208.13 0.6L208.13 0.6Q205.83 0.6 203.98-0.28 202.13-1.15 201.06-3.1 199.98-5.05 199.98-8.15L199.98-8.15 199.98-37 204.48-37 204.48-8.6Q204.48-5.9 205.61-4.6 206.73-3.3 208.73-3.3L208.73-3.3Q209.68-3.3 210.61-3.53 211.53-3.75 212.18-4.05L212.18-4.05 213.28-0.4Q212.38 0 211.06 0.3 209.73 0.6 208.13 0.6ZM224.53 0.6L224.53 0.6Q221.58 0.6 219.2-0.15 216.83-0.9 215.28-2.1L215.28-2.1 217.18-5.85Q218.48-4.75 220.45-4.03 222.43-3.3 224.68-3.3L224.68-3.3Q227.48-3.3 228.9-4.23 230.33-5.15 230.33-6.6L230.33-6.6Q230.33-7.65 229.8-8.45 229.28-9.25 227.88-10.03 226.48-10.8 223.83-11.7L223.83-11.7Q220.18-12.95 218.35-14.68 216.53-16.4 216.53-19.45L216.53-19.45Q216.53-22.45 219.15-24.53 221.78-26.6 226.43-26.6L226.43-26.6Q228.93-26.6 230.88-26.08 232.83-25.55 234.38-24.75L234.38-24.75 233.13-21.05Q231.78-21.85 230.05-22.35 228.33-22.85 226.23-22.85L226.23-22.85Q223.63-22.85 222.28-21.8 220.93-20.75 220.93-19.5L220.93-19.5Q220.93-18.3 221.98-17.45 223.03-16.6 226.08-15.6L226.08-15.6Q231.03-13.95 232.98-11.95 234.93-9.95 234.93-6.95L234.93-6.95Q234.93-3.45 232.1-1.43 229.28 0.6 224.53 0.6ZM251.33 0.6L251.33 0.6Q245.73 0.6 242.45-2.98 239.18-6.55 239.18-13L239.18-13Q239.18-16.9 240.65-19.98 242.13-23.05 244.78-24.83 247.43-26.6 250.93-26.6L250.93-26.6Q254.68-26.6 257.15-24.98 259.63-23.35 260.88-20.6 262.13-17.85 262.13-14.55L262.13-14.55Q262.13-12.8 261.98-11.15L261.98-11.15 243.78-11.15Q244.23-7.5 246.33-5.45 248.43-3.4 251.88-3.4L251.88-3.4Q254.13-3.4 255.93-3.88 257.73-4.35 259.38-5.1L259.38-5.1 260.43-1.25Q258.63-0.45 256.38 0.08 254.13 0.6 251.33 0.6ZM243.73-14.8L243.73-14.8 257.98-14.8Q257.98-18.6 256.08-20.65 254.18-22.7 250.83-22.7L250.83-22.7Q247.93-22.7 246.03-20.68 244.13-18.65 243.73-14.8ZM271.62 0.6L271.62 0.6Q270.27 0.6 269.27-0.4 268.27-1.4 268.27-2.75L268.27-2.75Q268.27-4.3 269.17-5.2 270.07-6.1 271.62-6.1L271.62-6.1Q272.92-6.1 273.95-5.1 274.97-4.1 274.97-2.75L274.97-2.75Q274.97-1.25 274.02-0.33 273.07 0.6 271.62 0.6ZM288.57 11L284.07 11 284.07-19.35Q284.07-21.05 283.25-21.78 282.42-22.5 281.12-22.5L281.12-22.5 282.07-26Q286.67-26 287.82-22.35L287.82-22.35Q288.32-23.1 289.45-24.1 290.57-25.1 292.25-25.85 293.92-26.6 296.07-26.6L296.07-26.6Q299.07-26.6 301.7-25.03 304.32-23.45 305.92-20.48 307.52-17.5 307.52-13.25L307.52-13.25Q307.52-9.1 305.92-5.98 304.32-2.85 301.75-1.13 299.17 0.6 296.17 0.6L296.17 0.6Q293.87 0.6 291.87-0.33 289.87-1.25 288.57-2.45L288.57-2.45 288.57 11ZM295.27-3.4L295.27-3.4Q298.67-3.4 300.8-6.08 302.92-8.75 302.92-13.1L302.92-13.1Q302.92-16.1 301.85-18.25 300.77-20.4 299-21.55 297.22-22.7 295.07-22.7L295.07-22.7Q292.92-22.7 291.2-21.63 289.47-20.55 288.57-19.3L288.57-19.3 288.57-6.5Q289.87-5.15 291.57-4.28 293.27-3.4 295.27-3.4ZM318.27 0L313.77 0 313.77-26 318.12-26 318.12-20.35Q318.77-22 319.87-23.43 320.97-24.85 322.62-25.73 324.27-26.6 326.47-26.6L326.47-26.6Q327.22-26.6 327.97-26.53 328.72-26.45 329.22-26.3L329.22-26.3 327.87-21.65Q326.92-22.05 325.62-22.05L325.62-22.05Q323.77-22.05 322.09-21 320.42-19.95 319.34-17.75 318.27-15.55 318.27-12.15L318.27-12.15 318.27 0ZM343.17 0.6L343.17 0.6Q339.47 0.6 336.52-1.13 333.57-2.85 331.89-5.93 330.22-9 330.22-13L330.22-13Q330.22-17.2 331.92-20.25 333.62-23.3 336.57-24.95 339.52-26.6 343.17-26.6L343.17-26.6Q346.82-26.6 349.74-24.95 352.67-23.3 354.39-20.28 356.12-17.25 356.12-13.1L356.12-13.1Q356.12-8.95 354.42-5.88 352.72-2.8 349.79-1.1 346.87 0.6 343.17 0.6ZM343.17-3.4L343.17-3.4Q347.12-3.4 349.32-6.08 351.52-8.75 351.52-13L351.52-13Q351.52-15.6 350.42-17.78 349.32-19.95 347.44-21.28 345.57-22.6 343.17-22.6L343.17-22.6Q339.22-22.6 337.02-20 334.82-17.4 334.82-13.1L334.82-13.1Q334.82-10.5 335.92-8.28 337.02-6.05 338.89-4.73 340.77-3.4 343.17-3.4Z" opacity="1" transform="matrix(1,0,0,1,0,0)" fill="#61777f" class="wordmark-text-0" data-fill-palette-color="primary" id="text-0"></path></svg></g></svg></g><g transform="matrix(1,0,0,1,0,67.56772098584388)"><svg viewBox="0 0 232.209792 16.228410147949504" height="16.228410147949504" width="232.209792"><g transform="matrix(1,0,0,1,0,0)"><svg width="232.209792" viewBox="1.55 -40.5 764.37 53.43" height="16.228410147949504" data-palette-color="#c8c8c8"><path d="M6.15 0L1.55 0 12.13-32.5 13-37.5 18.43-38 30.88 0 25.88 0 22.18-11.25 9.8-11.25 6.15 0ZM16.88-27.5L15.98-34 15.08-27.5 11.03-15 20.95-15 16.88-27.5ZM42.25-21.1L42.25 0 37.5 0 37.5-27.5 42.25-28 42.25-23.43 43.77-26.1Q44.22-26.4 44.92-26.73 45.62-27.05 46.48-27.31 47.35-27.58 48.35-27.75 49.35-27.93 50.37-27.93L50.37-27.93Q52.35-27.93 53.71-27.29 55.07-26.65 55.92-25.45 56.77-24.25 57.14-22.55 57.5-20.85 57.5-18.75L57.5-18.75 57.5 0 52.75 0 52.75-18.75Q52.75-20.1 52.56-21.08 52.37-22.05 51.91-22.69 51.45-23.33 50.67-23.63 49.9-23.93 48.75-23.93L48.75-23.93Q47.9-23.93 47.02-23.66 46.15-23.4 45.31-22.99 44.47-22.58 43.69-22.08 42.9-21.58 42.25-21.1L42.25-21.1ZM72.25-23.5L72.25-9.4Q72.25-7.75 72.43-6.64 72.62-5.53 72.98-4.84 73.34-4.15 73.88-3.86 74.42-3.58 75.12-3.58L75.12-3.58Q75.67-3.58 76.12-3.64 76.57-3.7 76.9-3.8L76.9-3.8Q77.27-3.9 77.57-4.03L77.57-4.03 79.3-1Q79.09-0.8 78.66-0.56 78.22-0.33 77.62-0.1 77.02 0.13 76.26 0.28 75.5 0.43 74.62 0.43L74.62 0.43Q72.37 0.43 70.97-0.4 69.57-1.23 68.8-2.65 68.02-4.08 67.76-5.96 67.5-7.85 67.5-10L67.5-10 67.5-23.5 63.75-23.5 63.75-27.5 67.5-27.5 67.5-32.73 72.12-35.5 72.12-27.5 80.62-27.5 80.12-23.5 72.25-23.5ZM92.24-26.88L92.24 0 87.49 0 87.49-26.38 92.24-26.88ZM87.34-32.5L87.34-37.5 92.39-37.5 92.39-32.5 87.34-32.5ZM107.24-23.5L107.24-9.4Q107.24-7.75 107.43-6.64 107.62-5.53 107.98-4.84 108.34-4.15 108.88-3.86 109.42-3.58 110.12-3.58L110.12-3.58Q110.67-3.58 111.12-3.64 111.57-3.7 111.89-3.8L111.89-3.8Q112.27-3.9 112.57-4.03L112.57-4.03 114.29-1Q114.09-0.8 113.65-0.56 113.22-0.33 112.62-0.1 112.02 0.13 111.25 0.28 110.49 0.43 109.62 0.43L109.62 0.43Q107.37 0.43 105.97-0.4 104.57-1.23 103.79-2.65 103.02-4.08 102.75-5.96 102.49-7.85 102.49-10L102.49-10 102.49-23.5 98.74-23.5 98.74-27.5 102.49-27.5 102.49-32.73 107.12-35.5 107.12-27.5 115.62-27.5 115.12-23.5 107.24-23.5ZM134.26-23.7L134.26-23.7Q133.26-23.7 132.29-23.3 131.31-22.9 130.41-22.23 129.51-21.55 128.71-20.65 127.91-19.75 127.24-18.75L127.24-18.75 127.24 0 122.49 0 122.49-27.5 127.24-28 127.24-22.38 129.74-26.75Q130.06-26.95 130.55-27.16 131.04-27.38 131.66-27.54 132.29-27.7 133-27.81 133.71-27.93 134.46-27.93L134.46-27.93Q135.59-27.93 136.35-27.73 137.11-27.53 137.49-27.35L137.49-27.35 137.24-23.2Q136.86-23.33 136.11-23.51 135.36-23.7 134.26-23.7ZM157.74-6.45L157.74-27.5 162.49-28 162.49 0 157.74 0 157.74-4.08 156.21-1.4Q155.76-1.1 155.15-0.78 154.54-0.45 153.76-0.19 152.99 0.08 152.06 0.25 151.14 0.43 150.11 0.43L150.11 0.43Q148.11 0.43 146.67-0.3 145.24-1.03 144.31-2.33 143.39-3.63 142.94-5.41 142.49-7.2 142.49-9.3L142.49-9.3 142.49-27.5 147.24-28 147.24-9.3Q147.24-6.6 148.32-5.09 149.41-3.58 151.74-3.58L151.74-3.58Q152.59-3.58 153.41-3.85 154.24-4.13 155.01-4.55 155.79-4.98 156.47-5.48 157.16-5.98 157.74-6.45L157.74-6.45ZM185.46-26.18L184.01-22.98Q183.56-23.2 182.93-23.43 182.31-23.65 181.63-23.83 180.96-24 180.27-24.1 179.58-24.2 178.96-24.2L178.96-24.2Q176.31-24.2 175.21-23.41 174.11-22.63 174.11-21.05L174.11-21.05Q174.11-20 174.83-19.31 175.56-18.63 176.71-18.07 177.86-17.53 179.27-17.04 180.68-16.55 182.03-15.88L182.03-15.88Q183.01-15.4 184.01-14.75 185.01-14.1 185.81-13.23 186.61-12.35 187.11-11.25 187.61-10.15 187.61-8.78L187.61-8.78Q187.61-6.25 186.76-4.5 185.91-2.75 184.45-1.66 182.98-0.58 181.02-0.08 179.06 0.43 176.83 0.43L176.83 0.43Q175.98 0.43 174.91 0.26 173.83 0.1 172.76-0.19 171.68-0.48 170.71-0.88 169.73-1.28 169.08-1.73L169.08-1.73 170.73-5.03Q171.33-4.73 172.16-4.46 172.98-4.2 173.86-4 174.73-3.8 175.6-3.69 176.46-3.58 177.13-3.58L177.13-3.58Q178.28-3.58 179.35-3.81 180.41-4.05 181.22-4.58 182.03-5.1 182.52-5.94 183.01-6.78 183.01-8L183.01-8Q183.01-8.93 182.62-9.63 182.23-10.33 181.57-10.86 180.91-11.4 180.03-11.85 179.16-12.3 178.18-12.71 177.21-13.13 176.18-13.56 175.16-14 174.23-14.53L174.23-14.53Q173.36-15.03 172.55-15.63 171.73-16.23 171.11-16.98 170.48-17.73 170.11-18.66 169.73-19.6 169.73-20.8L169.73-20.8Q169.73-22.7 170.41-24.06 171.08-25.43 172.31-26.28 173.53-27.13 175.26-27.53 176.98-27.93 179.06-27.93L179.06-27.93Q180.01-27.93 180.93-27.78 181.86-27.63 182.71-27.39 183.56-27.15 184.26-26.83 184.96-26.5 185.46-26.18L185.46-26.18ZM199.73-23.5L199.73-9.4Q199.73-7.75 199.92-6.64 200.11-5.53 200.47-4.84 200.83-4.15 201.37-3.86 201.91-3.58 202.61-3.58L202.61-3.58Q203.16-3.58 203.61-3.64 204.06-3.7 204.38-3.8L204.38-3.8Q204.76-3.9 205.06-4.03L205.06-4.03 206.78-1Q206.58-0.8 206.14-0.56 205.71-0.33 205.11-0.1 204.51 0.13 203.74 0.28 202.98 0.43 202.11 0.43L202.11 0.43Q199.86 0.43 198.46-0.4 197.06-1.23 196.28-2.65 195.51-4.08 195.24-5.96 194.98-7.85 194.98-10L194.98-10 194.98-23.5 191.23-23.5 191.23-27.5 194.98-27.5 194.98-32.73 199.61-35.5 199.61-27.5 208.11-27.5 207.61-23.5 199.73-23.5ZM237.48 0L232.23 0 232.23-32.25 231.48-37.5 237.48-38 237.48 0ZM252.22-21.1L252.22 0 247.47 0 247.47-27.5 252.22-28 252.22-23.43 253.75-26.1Q254.2-26.4 254.9-26.73 255.6-27.05 256.46-27.31 257.32-27.58 258.32-27.75 259.32-27.93 260.35-27.93L260.35-27.93Q262.32-27.93 263.69-27.29 265.05-26.65 265.9-25.45 266.75-24.25 267.11-22.55 267.47-20.85 267.47-18.75L267.47-18.75 267.47 0 262.72 0 262.72-18.75Q262.72-20.1 262.54-21.08 262.35-22.05 261.89-22.69 261.42-23.33 260.65-23.63 259.87-23.93 258.72-23.93L258.72-23.93Q257.87-23.93 257-23.66 256.12-23.4 255.29-22.99 254.45-22.58 253.66-22.08 252.87-21.58 252.22-21.1L252.22-21.1ZM290.45-26.18L289-22.98Q288.55-23.2 287.92-23.43 287.3-23.65 286.62-23.83 285.95-24 285.26-24.1 284.57-24.2 283.95-24.2L283.95-24.2Q281.3-24.2 280.2-23.41 279.1-22.63 279.1-21.05L279.1-21.05Q279.1-20 279.82-19.31 280.55-18.63 281.7-18.07 282.85-17.53 284.26-17.04 285.67-16.55 287.02-15.88L287.02-15.88Q288-15.4 289-14.75 290-14.1 290.8-13.23 291.6-12.35 292.1-11.25 292.6-10.15 292.6-8.78L292.6-8.78Q292.6-6.25 291.75-4.5 290.9-2.75 289.43-1.66 287.97-0.58 286.01-0.08 284.05 0.43 281.82 0.43L281.82 0.43Q280.97 0.43 279.9 0.26 278.82 0.1 277.75-0.19 276.67-0.48 275.7-0.88 274.72-1.28 274.07-1.73L274.07-1.73 275.72-5.03Q276.32-4.73 277.15-4.46 277.97-4.2 278.85-4 279.72-3.8 280.58-3.69 281.45-3.58 282.12-3.58L282.12-3.58Q283.27-3.58 284.33-3.81 285.4-4.05 286.21-4.58 287.02-5.1 287.51-5.94 288-6.78 288-8L288-8Q288-8.93 287.61-9.63 287.22-10.33 286.56-10.86 285.9-11.4 285.02-11.85 284.15-12.3 283.17-12.71 282.2-13.13 281.17-13.56 280.15-14 279.22-14.53L279.22-14.53Q278.35-15.03 277.53-15.63 276.72-16.23 276.1-16.98 275.47-17.73 275.1-18.66 274.72-19.6 274.72-20.8L274.72-20.8Q274.72-22.7 275.4-24.06 276.07-25.43 277.3-26.28 278.52-27.13 280.25-27.53 281.97-27.93 284.05-27.93L284.05-27.93Q285-27.93 285.92-27.78 286.85-27.63 287.7-27.39 288.55-27.15 289.25-26.83 289.95-26.5 290.45-26.18L290.45-26.18ZM304.72-26.88L304.72 0 299.97 0 299.97-26.38 304.72-26.88ZM299.82-32.5L299.82-37.5 304.87-37.5 304.87-32.5 299.82-32.5ZM330.22 0.78L330.22-3.38 328.04-0.63Q327.82-0.48 327.4-0.3 326.99-0.13 326.39 0.04 325.79 0.2 324.99 0.31 324.19 0.43 323.22 0.43L323.22 0.43Q320.94 0.43 318.98-0.69 317.02-1.8 315.57-3.71 314.12-5.63 313.29-8.19 312.47-10.75 312.47-13.63L312.47-13.63Q312.47-16.55 313.22-19.15 313.97-21.75 315.47-23.7 316.97-25.65 319.19-26.79 321.42-27.93 324.37-27.93L324.37-27.93Q325.29-27.93 326.18-27.85 327.07-27.78 327.84-27.5L327.84-27.5 330.22-23.95 330.22-28 334.97-27.5 334.97 1.15Q334.97 3.6 334.13 5.75 333.29 7.9 331.72 9.49 330.14 11.08 327.88 12 325.62 12.93 322.77 12.93L322.77 12.93Q320.79 12.93 319.3 12.43 317.82 11.93 316.77 11.33L316.77 11.33Q315.57 10.63 314.69 9.7L314.69 9.7 317.14 6.95Q317.87 7.5 318.77 7.95L318.77 7.95Q319.54 8.33 320.57 8.63 321.59 8.93 322.79 8.93L322.79 8.93Q324.34 8.93 325.69 8.29 327.04 7.65 328.05 6.55 329.07 5.45 329.64 3.96 330.22 2.48 330.22 0.78L330.22 0.78ZM330.22-6.88L330.22-20.85Q329.54-21.7 328.64-22.38L328.64-22.38Q327.87-22.95 326.77-23.44 325.67-23.93 324.24-23.93L324.24-23.93Q322.74-23.93 321.64-23.45 320.54-22.98 319.75-22.18 318.97-21.38 318.48-20.31 317.99-19.25 317.7-18.06 317.42-16.88 317.32-15.66 317.22-14.45 317.22-13.33L317.22-13.33Q317.22-11.2 317.68-9.41 318.14-7.63 318.98-6.34 319.82-5.05 321-4.33 322.19-3.6 323.62-3.6L323.62-3.6Q324.89-3.6 325.89-3.88 326.89-4.15 327.69-4.61 328.49-5.08 329.1-5.66 329.72-6.25 330.22-6.88L330.22-6.88ZM349.71-20.83L349.71 0 344.96 0 344.96-35 344.46-40 349.71-40.5 349.71-23.75 351.94-26.63Q352.91-27.18 354.26-27.55 355.61-27.93 357.21-27.93L357.21-27.93Q360.96-27.93 362.96-25.43 364.96-22.93 364.96-18.25L364.96-18.25 364.96 0 360.21 0 360.21-17.73Q360.21-19.4 359.93-20.58 359.64-21.75 359.11-22.5 358.59-23.25 357.81-23.59 357.04-23.93 356.06-23.93L356.06-23.93Q355.09-23.93 354.16-23.69 353.24-23.45 352.41-23.04 351.59-22.63 350.9-22.06 350.21-21.5 349.71-20.83L349.71-20.83ZM379.71-23.5L379.71-9.4Q379.71-7.75 379.9-6.64 380.09-5.53 380.45-4.84 380.81-4.15 381.35-3.86 381.89-3.58 382.59-3.58L382.59-3.58Q383.14-3.58 383.59-3.64 384.04-3.7 384.36-3.8L384.36-3.8Q384.74-3.9 385.04-4.03L385.04-4.03 386.76-1Q386.56-0.8 386.12-0.56 385.69-0.33 385.09-0.1 384.49 0.13 383.72 0.28 382.96 0.43 382.09 0.43L382.09 0.43Q379.84 0.43 378.44-0.4 377.04-1.23 376.26-2.65 375.49-4.08 375.22-5.96 374.96-7.85 374.96-10L374.96-10 374.96-23.5 371.21-23.5 371.21-27.5 374.96-27.5 374.96-32.73 379.59-35.5 379.59-27.5 388.09-27.5 387.59-23.5 379.71-23.5ZM392.51-3.33L392.51-3.33Q392.51-4.05 392.8-4.71 393.08-5.38 393.6-5.85 394.11-6.33 394.78-6.63 395.46-6.93 396.21-6.93L396.21-6.93Q396.93-6.93 397.6-6.66 398.26-6.4 398.77-5.9 399.28-5.4 399.6-4.64 399.91-3.88 399.91-2.9L399.91-2.9Q399.91-1.58 399.75-0.34 399.58 0.9 399.07 2.18 398.56 3.45 397.61 4.78 396.66 6.1 395.11 7.53L395.11 7.53 393.81 6.95Q394.38 5.85 394.83 4.67L394.83 4.67Q395.21 3.7 395.52 2.54 395.83 1.38 395.83 0.28L395.83 0.28Q395.21 0.25 394.61 0 394.01-0.25 393.53-0.69 393.06-1.13 392.78-1.8 392.51-2.48 392.51-3.33ZM426.1 0L421.5 0 432.08-32.5 432.95-37.5 438.38-38 450.83 0 445.83 0 442.13-11.25 429.75-11.25 426.1 0ZM436.83-27.5L435.93-34 435.03-27.5 430.98-15 440.9-15 436.83-27.5ZM462.2-20.83L462.2 0 457.45 0 457.45-35 456.95-40 462.2-40.5 462.2-23.75 464.43-26.63Q465.4-27.18 466.75-27.55 468.1-27.93 469.7-27.93L469.7-27.93Q473.45-27.93 475.45-25.43 477.45-22.93 477.45-18.25L477.45-18.25 477.45 0 472.7 0 472.7-17.73Q472.7-19.4 472.41-20.58 472.13-21.75 471.6-22.5 471.08-23.25 470.3-23.59 469.53-23.93 468.55-23.93L468.55-23.93Q467.58-23.93 466.65-23.69 465.73-23.45 464.9-23.04 464.08-22.63 463.39-22.06 462.7-21.5 462.2-20.83L462.2-20.83ZM503.87-5.63L506.6-3.23Q505.82-2.43 504.9-1.75 503.97-1.07 502.85-0.59 501.72-0.1 500.36 0.16 499 0.43 497.32 0.43L497.32 0.43Q494 0.43 491.65-0.75 489.3-1.93 487.81-3.9 486.32-5.88 485.64-8.43 484.95-10.98 484.95-13.75L484.95-13.75Q484.95-15.53 485.27-17.26 485.6-19 486.25-20.58 486.9-22.15 487.87-23.5 488.85-24.85 490.15-25.83 491.45-26.8 493.09-27.36 494.72-27.93 496.7-27.93L496.7-27.93Q499.4-27.93 501.37-27.05 503.35-26.18 504.65-24.6 505.95-23.03 506.57-20.83 507.2-18.63 507.2-15.95L507.2-15.95Q507.2-15.18 507.15-14.25 507.1-13.33 507-12.5L507-12.5 489.7-12.5Q489.7-10.63 490.21-9 490.72-7.38 491.65-6.16 492.57-4.95 493.89-4.26 495.2-3.58 496.82-3.58L496.82-3.58Q498.42-3.58 499.61-3.81 500.8-4.05 501.65-4.39 502.5-4.73 503.04-5.08 503.57-5.43 503.87-5.63L503.87-5.63ZM493.32-16.25L502.45-16.25Q502.47-16.53 502.49-16.8 502.5-17.07 502.5-17.35L502.5-17.35Q502.5-18.78 502.17-19.98 501.85-21.18 501.19-22.06 500.52-22.95 499.5-23.45 498.47-23.95 497.07-23.95L497.07-23.95Q495.4-23.95 494.21-23.41 493.02-22.88 492.21-22.04 491.4-21.2 490.91-20.2 490.42-19.2 490.17-18.3L490.17-18.3 488.87-15.58 493.32-16.25ZM532.45-4.5L532.95 0 527.7 0 527.7-4.05 525.35-1.25Q524.92-0.93 524.37-0.63 523.82-0.33 523.26-0.09 522.7 0.15 522.13 0.29 521.57 0.43 521.1 0.43L521.1 0.43Q519.22 0.43 517.51-0.16 515.8-0.75 514.51-1.89 513.22-3.03 512.46-4.71 511.7-6.4 511.7-8.6L511.7-8.6Q511.7-10.93 512.63-12.64 513.57-14.35 515.03-15.49 516.5-16.63 518.3-17.19 520.1-17.75 521.82-17.75L521.82-17.75Q523.25-17.75 524.33-17.6 525.42-17.45 526.17-17.25L526.17-17.25Q527.05-17.03 527.7-16.75L527.7-16.75 527.7-17.63Q527.7-19.1 527.52-20.28 527.35-21.45 526.81-22.26 526.27-23.08 525.26-23.5 524.25-23.93 522.57-23.93L522.57-23.93Q521.22-23.93 519.97-23.74 518.72-23.55 517.75-23.33L517.75-23.33Q516.6-23.05 515.62-22.75L515.62-22.75 513.82-26.1Q514.92-26.6 516.32-27L516.32-27Q517.52-27.35 519.17-27.64 520.82-27.93 522.82-27.93L522.82-27.93Q525.7-27.93 527.57-27.15 529.45-26.38 530.52-24.98 531.6-23.58 532.02-21.61 532.45-19.65 532.45-17.25L532.45-17.25 532.45-4.5ZM527.7-6.85L527.7-13.33Q527-13.43 526.2-13.53L526.2-13.53Q525.52-13.6 524.65-13.68 523.77-13.75 522.82-13.75L522.82-13.75Q521.42-13.75 520.26-13.48 519.1-13.2 518.25-12.59 517.4-11.98 516.92-11 516.45-10.03 516.45-8.63L516.45-8.63Q516.45-7.5 516.82-6.58 517.2-5.65 517.85-4.98 518.5-4.3 519.38-3.94 520.27-3.58 521.3-3.58L521.3-3.58Q521.77-3.58 522.31-3.71 522.85-3.85 523.38-4.08 523.92-4.3 524.46-4.6 525-4.9 525.47-5.2L525.47-5.2Q526.6-5.93 527.7-6.85L527.7-6.85ZM556.44-23.5L552.59-23.5Q550.29-23.5 548.62-22.64 546.94-21.78 545.84-20.3 544.74-18.82 544.22-16.82 543.69-14.83 543.69-12.55L543.69-12.55Q543.69-10.33 544.22-8.65 544.74-6.98 545.58-5.85 546.42-4.73 547.49-4.16 548.57-3.6 549.69-3.6L549.69-3.6Q550.87-3.6 551.88-4 552.89-4.4 553.74-5 554.59-5.6 555.27-6.31 555.94-7.03 556.44-7.65L556.44-7.65 556.44-23.5ZM561.69 0L556.44 0 556.44-4.05 554.07-1.23Q553.62-0.93 553.09-0.63 552.57-0.33 551.92-0.1 551.27 0.13 550.48 0.28 549.69 0.43 548.72 0.43L548.72 0.43Q546.67 0.43 544.89-0.59 543.12-1.6 541.8-3.4 540.49-5.2 539.73-7.69 538.97-10.18 538.97-13.15L538.97-13.15Q538.97-16.15 539.93-18.76 540.89-21.38 542.67-23.33 544.44-25.28 546.96-26.39 549.47-27.5 552.57-27.5L552.57-27.5 556.44-27.5 556.44-40.5 561.19-40 561.19-4.5 561.69 0ZM598.66 0.43L598.66 0.43Q595.89 0.43 593.6-0.66 591.31-1.75 589.66-3.66 588.01-5.58 587.1-8.19 586.19-10.8 586.19-13.83L586.19-13.83Q586.19-16.85 587.06-19.44 587.94-22.03 589.56-23.91 591.19-25.8 593.5-26.86 595.81-27.93 598.66-27.93L598.66-27.93Q601.44-27.93 603.74-26.86 606.04-25.8 607.69-23.91 609.34-22.03 610.26-19.44 611.19-16.85 611.19-13.83L611.19-13.83Q611.19-10.8 610.3-8.19 609.41-5.58 607.79-3.66 606.16-1.75 603.84-0.66 601.51 0.43 598.66 0.43ZM606.44-13.15L606.44-13.15Q606.44-15.18 606-17.13 605.56-19.07 604.61-20.61 603.66-22.15 602.16-23.1 600.66-24.05 598.56-24.05L598.56-24.05Q596.56-24.05 595.11-23.23 593.66-22.4 592.74-21.03 591.81-19.65 591.37-17.9 590.94-16.15 590.94-14.3L590.94-14.3Q590.94-12.28 591.37-10.33 591.81-8.38 592.75-6.85 593.69-5.33 595.17-4.39 596.66-3.45 598.76-3.45L598.76-3.45Q600.74-3.45 602.19-4.28 603.64-5.1 604.59-6.46 605.54-7.83 605.99-9.58 606.44-11.33 606.44-13.15ZM614.93-23.5L614.93-27.5 618.68-27.5 618.68-31.38Q618.68-33.5 619.15-35.18 619.61-36.85 620.61-38.01 621.61-39.18 623.17-39.8 624.73-40.43 626.93-40.43L626.93-40.43Q628.06-40.43 629-40.24 629.93-40.05 630.72-39.75 631.51-39.45 632.17-39.05 632.83-38.65 633.36-38.23L633.36-38.23 631.23-35.27Q630.71-35.65 629.78-36.04 628.86-36.43 627.73-36.43L627.73-36.43Q625.58-36.43 624.45-35.21 623.31-34 623.31-31.13L623.31-31.13 623.31-27.5 630.56-27.5 630.06-23.5 623.43-23.5 623.43 0 618.68 0 618.68-23.5 614.93-23.5ZM668.8 0L663.55 0 663.55-33.5 653.18-33.5 653.18-37.5 679.05-37.5 679.05-33.5 668.8-33.5 668.8 0ZM690.93-26.88L690.93 0 686.18 0 686.18-26.38 690.93-26.88ZM686.03-32.5L686.03-37.5 691.08-37.5 691.08-32.5 686.03-32.5ZM705.92-21.1L705.92 0 701.17 0 701.17-27.5 705.92-28 705.92-23.43 707.45-26.1Q707.9-26.4 708.57-26.73 709.25-27.05 710.1-27.31 710.95-27.58 711.92-27.75 712.9-27.93 713.92-27.93L713.92-27.93Q716.72-27.93 718.47-26.56 720.22-25.2 720.75-23.08L720.75-23.08 722.65-26Q723.52-26.7 725.12-27.31 726.72-27.93 728.8-27.93L728.8-27.93Q730.7-27.93 732.05-27.29 733.4-26.65 734.26-25.45 735.12-24.25 735.52-22.55 735.92-20.85 735.92-18.75L735.92-18.75 735.92 0 731.17 0 731.17-18.5Q731.17-19.85 730.99-20.86 730.8-21.88 730.34-22.56 729.87-23.25 729.1-23.59 728.32-23.93 727.17-23.93L727.17-23.93Q726.45-23.93 725.66-23.68 724.87-23.43 724.07-23.01 723.27-22.6 722.51-22.06 721.75-21.53 721.07-20.98L721.07-20.98Q721.15-20.25 721.16-19.76 721.17-19.28 721.17-18.5L721.17-18.5 721.17 0 716.42 0 716.42-18.5Q716.42-21.2 715.52-22.56 714.62-23.93 712.3-23.93L712.3-23.93Q711.55-23.93 710.7-23.7 709.85-23.48 709.01-23.08 708.17-22.68 707.37-22.16 706.57-21.65 705.92-21.1L705.92-21.1ZM762.6-5.63L765.32-3.23Q764.55-2.43 763.62-1.75 762.7-1.07 761.57-0.59 760.45-0.1 759.08 0.16 757.72 0.43 756.05 0.43L756.05 0.43Q752.72 0.43 750.37-0.75 748.02-1.93 746.53-3.9 745.05-5.88 744.36-8.43 743.67-10.98 743.67-13.75L743.67-13.75Q743.67-15.53 744-17.26 744.32-19 744.97-20.58 745.62-22.15 746.6-23.5 747.57-24.85 748.87-25.83 750.17-26.8 751.81-27.36 753.45-27.93 755.42-27.93L755.42-27.93Q758.12-27.93 760.1-27.05 762.07-26.18 763.37-24.6 764.67-23.03 765.3-20.83 765.92-18.63 765.92-15.95L765.92-15.95Q765.92-15.18 765.87-14.25 765.82-13.33 765.72-12.5L765.72-12.5 748.42-12.5Q748.42-10.63 748.93-9 749.45-7.38 750.37-6.16 751.3-4.95 752.61-4.26 753.92-3.58 755.55-3.58L755.55-3.58Q757.15-3.58 758.33-3.81 759.52-4.05 760.37-4.39 761.22-4.73 761.76-5.08 762.3-5.43 762.6-5.63L762.6-5.63ZM752.05-16.25L761.17-16.25Q761.2-16.53 761.21-16.8 761.22-17.07 761.22-17.35L761.22-17.35Q761.22-18.78 760.9-19.98 760.57-21.18 759.91-22.06 759.25-22.95 758.22-23.45 757.2-23.95 755.8-23.95L755.8-23.95Q754.12-23.95 752.93-23.41 751.75-22.88 750.93-22.04 750.12-21.2 749.63-20.2 749.15-19.2 748.9-18.3L748.9-18.3 747.6-15.58 752.05-16.25Z" opacity="1" transform="matrix(1,0,0,1,0,0)" fill="#c8c8c8" class="slogan-text-1" data-fill-palette-color="secondary" id="text-1"></path></svg></g></svg></g></svg></g></svg></g><g transform="matrix(1,0,0,1,0,0.20949032783448018)"><svg viewBox="0 0 67.30378218117707 83.79613113379338" height="83.79613113379338" width="67.30378218117707"><g><svg xmlns="http://www.w3.org/2000/svg" xmlns:xlink="http://www.w3.org/1999/xlink" version="1.0" x="0" y="0" viewBox="29 21 46.249792805011 57.5830002" enable-background="new 0 0 100 100" xml:space="preserve" height="83.79613113379338" width="67.30378218117707" class="icon-icon-0" data-fill-palette-color="accent" id="icon-0"><g fill="#c8c8c8" data-fill-palette-color="accent"><g fill="#c8c8c8" data-fill-palette-color="accent"><path d="M75.191 50.908l-3.628-10.163C68.08 30.981 62.794 21 50 21c-11.579 0-21 9.421-21 21 0 6.377 2.826 12.299 7.769 16.309l3.09 17.194c0.055 0.301 0.243 0.561 0.513 0.705 0.181 0.097 4.496 2.375 9.378 2.375 4.882 0 9.196-2.278 9.378-2.375 0.27-0.145 0.458-0.404 0.513-0.705l3.046-16.951c0.022-0.119 0.021-0.236 0.001-0.349 1.788-1.608 3.352-3.603 4.651-5.959H74.25c0.325 0 0.63-0.158 0.817-0.424C75.255 51.555 75.301 51.214 75.191 50.908zM66.74 50.244c-0.372 0-0.714 0.207-0.887 0.537C62.584 57.044 57.336 60.633 51 60.974V56.5v-5.297-3.602L55.1 40.5c0.179-0.31 0.179-0.69 0-1S54.591 39 54.233 39h-8.467c-0.357 0-0.688 0.19-0.867 0.5s-0.179 0.69 0 1L49 47.601v3.602V56.5 62c0 0.553 0.447 1 1 1 3.856 0 7.375-1.043 10.4-3.03l-1.649 9.179c-2.512 1.169-5.201 1.768-8.001 1.768-1.749 0-3.482-0.238-5.152-0.707-0.53-0.148-1.084 0.16-1.234 0.692-0.15 0.532 0.161 1.084 0.693 1.234 1.847 0.519 3.762 0.781 5.693 0.781 2.629 0 5.169-0.481 7.578-1.417l-0.566 3.152C56.617 75.19 53.308 76.583 49.75 76.583c-3.544 0-6.863-1.394-8.012-1.932l-1.659-9.236C43.118 67.049 46.505 67.917 50 67.917c1.932 0 3.847-0.263 5.693-0.781 0.531-0.149 0.842-0.701 0.693-1.234-0.149-0.532-0.699-0.841-1.234-0.692C53.482 65.679 51.749 65.917 50 65.917c-3.716 0-7.298-1.076-10.388-3.1l-0.94-5.231c-0.043-0.242-0.174-0.46-0.368-0.612C33.662 53.344 31 47.886 31 42c0-10.477 8.523-19 19-19 11.521 0 16.268 8.852 19.681 18.417l3.15 8.827H66.74zM50 45.333L47.498 41h5.003L50 45.333z" fill="#c8c8c8" data-fill-palette-color="accent"></path><path d="M42.896 46.102c-0.277-0.479-0.89-0.643-1.366-0.367l-4.588 2.649c-0.479 0.276-0.643 0.888-0.366 1.366 0.186 0.321 0.521 0.5 0.867 0.5 0.17 0 0.342-0.043 0.499-0.134l4.588-2.648C43.009 47.191 43.173 46.58 42.896 46.102z" fill="#c8c8c8" data-fill-palette-color="accent"></path><path d="M63.058 48.384l-4.588-2.649c-0.479-0.276-1.09-0.112-1.367 0.367-0.276 0.479-0.112 1.09 0.367 1.366l4.588 2.648C62.215 50.207 62.387 50.25 62.557 50.25c0.346 0 0.682-0.18 0.867-0.5C63.7 49.271 63.536 48.66 63.058 48.384z" fill="#c8c8c8" data-fill-palette-color="accent"></path><path d="M63.5 41h-4.297c-0.553 0-1 0.447-1 1s0.447 1 1 1H63.5c0.553 0 1-0.447 1-1S64.053 41 63.5 41z" fill="#c8c8c8" data-fill-palette-color="accent"></path><path d="M55.468 34.53l2.148-3.721C57.893 30.33 57.728 29.719 57.25 29.442c-0.478-0.276-1.09-0.111-1.366 0.367l-2.149 3.721c-0.276 0.479-0.112 1.09 0.367 1.366 0.157 0.091 0.329 0.134 0.499 0.134C54.946 35.03 55.282 34.851 55.468 34.53z" fill="#c8c8c8" data-fill-palette-color="accent"></path><path d="M44.116 29.809C43.84 29.331 43.227 29.166 42.75 29.442c-0.479 0.276-0.643 0.888-0.366 1.367l2.148 3.721c0.186 0.32 0.521 0.5 0.867 0.5 0.17 0 0.342-0.043 0.499-0.134 0.479-0.276 0.643-0.888 0.367-1.366L44.116 29.809z" fill="#c8c8c8" data-fill-palette-color="accent"></path><path d="M40.797 43c0.553 0 1-0.447 1-1s-0.447-1-1-1H36.5c-0.553 0-1 0.447-1 1s0.447 1 1 1H40.797z" fill="#c8c8c8" data-fill-palette-color="accent"></path><path d="M42.384 53.191c-0.276 0.479-0.112 1.09 0.366 1.367 0.157 0.091 0.329 0.134 0.499 0.133 0.346 0 0.682-0.18 0.867-0.5l2.149-3.721c0.276-0.479 0.112-1.09-0.367-1.366-0.478-0.276-1.091-0.112-1.366 0.366L42.384 53.191z" fill="#c8c8c8" data-fill-palette-color="accent"></path><path d="M55.468 49.47c-0.277-0.479-0.89-0.643-1.366-0.366-0.479 0.276-0.643 0.888-0.367 1.366l2.149 3.721c0.185 0.32 0.521 0.5 0.867 0.5 0.17 0 0.342-0.043 0.499-0.133 0.478-0.276 0.643-0.888 0.366-1.367L55.468 49.47z" fill="#c8c8c8" data-fill-palette-color="accent"></path><path d="M57.103 37.898c0.186 0.321 0.522 0.5 0.868 0.5 0.17 0 0.342-0.043 0.499-0.133l4.588-2.649c0.479-0.276 0.643-0.888 0.366-1.366-0.277-0.479-0.89-0.644-1.366-0.366l-4.588 2.648C56.991 36.809 56.827 37.42 57.103 37.898z" fill="#c8c8c8" data-fill-palette-color="accent"></path><path d="M50 26.5c-0.553 0-1 0.447-1 1v5.297c0 0.553 0.447 1 1 1 0.553 0 1-0.447 1-1V27.5C51 26.947 50.553 26.5 50 26.5z" fill="#c8c8c8" data-fill-palette-color="accent"></path><path d="M36.942 35.616l4.588 2.649c0.157 0.091 0.329 0.134 0.499 0.133 0.346 0 0.682-0.18 0.867-0.5 0.276-0.479 0.112-1.09-0.366-1.366l-4.588-2.648c-0.479-0.277-1.09-0.112-1.366 0.366C36.3 34.729 36.464 35.34 36.942 35.616z" fill="#c8c8c8" data-fill-palette-color="accent"></path></g></g></svg></g></svg></g></svg></g><defs></defs></svg><rect width="395.5199999999999" height="67.48639074323731" fill="none" stroke="none" visibility="hidden"></rect></g></svg></g></svg>