<svg xmlns="http://www.w3.org/2000/svg" version="1.1" xmlns:xlink="http://www.w3.org/1999/xlink" xmlns:svgjs="http://svgjs.dev/svgjs" width="1500" height="287" viewBox="0 0 1500 287"><g transform="matrix(1,0,0,1,-0.9090909090909918,-0.753056970606707)"><svg viewBox="0 0 396 76" data-background-color="#ffffff" preserveAspectRatio="xMidYMid meet" height="287" width="1500" xmlns="http://www.w3.org/2000/svg" xmlns:xlink="http://www.w3.org/1999/xlink"><g id="tight-bounds" transform="matrix(1,0,0,1,0.2400000000000091,0.19941578315717834)"><svg viewBox="0 0 395.52 75.60116843368566" height="75.60116843368566" width="395.52"><g><svg viewBox="0 0 504.9867968123766 96.52506038278692" height="75.60116843368566" width="395.52"><g transform="matrix(1,0,0,1,109.46679681237666,5.674437473704835)"><svg viewBox="0 0 395.52 85.17618543537725" height="85.17618543537725" width="395.52"><g id="textblocktransform"><svg viewBox="0 0 395.52 85.17618543537725" height="85.17618543537725" width="395.52" id="textblock"><g><svg viewBox="0 0 395.52 54.82021226041502" height="54.82021226041502" width="395.52"><g transform="matrix(1,0,0,1,0,0)"><svg width="395.52" viewBox="1.9 -43.35 315.62 43.75" height="54.82021226041502" data-palette-color="#113f67"><path d="M1.9 0L1.9-42.95 13.25-42.95Q18.4-42.95 20.6-39.63 22.8-36.3 22.8-29.9L22.8-29.9Q22.8-23.5 20.85-20.25 18.9-17 13.85-17L13.85-17 10.35-17 10.35 0 1.9 0ZM10.35-24.75L10.85-24.75Q12.4-24.75 13.13-25.33 13.85-25.9 14.08-26.98 14.3-28.05 14.3-30.05L14.3-30.05Q14.3-32.75 13.7-33.95 13.1-35.15 11.3-35.15L11.3-35.15 10.35-35.15 10.35-24.75ZM35.75 0.4Q30.55 0.4 27.85-2.78 25.15-5.95 25.15-11.7L25.15-11.7 25.15-32.15Q25.15-37.7 27.85-40.53 30.55-43.35 35.75-43.35L35.75-43.35Q40.95-43.35 43.65-40.53 46.35-37.7 46.35-32.15L46.35-32.15 46.35-11.7Q46.35-5.9 43.65-2.75 40.95 0.4 35.75 0.4L35.75 0.4ZM35.75-7.5Q36.9-7.5 37.3-8.5 37.7-9.5 37.7-11.3L37.7-11.3 37.7-32.3Q37.7-33.7 37.32-34.58 36.95-35.45 35.8-35.45L35.8-35.45Q33.65-35.45 33.65-32.2L33.65-32.2 33.65-11.25Q33.65-9.4 34.1-8.45 34.55-7.5 35.75-7.5L35.75-7.5ZM67.25 0L49.8 0 49.8-42.95 58.4-42.95 58.4-7.3 67.25-7.3 67.25 0ZM77.54 0L69.24 0 69.24-42.95 77.54-42.95 77.54 0ZM90.99 0.4Q86.29 0.4 83.47-2.55 80.64-5.5 80.64-10.65L80.64-10.65 80.64-30.45Q80.64-36.85 83.19-40.1 85.74-43.35 91.19-43.35L91.19-43.35Q95.94-43.35 98.84-40.75 101.74-38.15 101.74-33.25L101.74-33.25 101.74-25.85 93.19-25.85 93.19-32.2Q93.19-34.05 92.74-34.75 92.29-35.45 91.19-35.45L91.19-35.45Q90.04-35.45 89.62-34.65 89.19-33.85 89.19-32.3L89.19-32.3 89.19-10.75Q89.19-9.05 89.69-8.28 90.19-7.5 91.19-7.5L91.19-7.5Q93.19-7.5 93.19-10.75L93.19-10.75 93.19-18.5 101.84-18.5 101.84-10.4Q101.84 0.4 90.99 0.4L90.99 0.4ZM117.99 0L109.89 0 109.89-14.15 103.04-42.95 111.54-42.95 113.94-28.4 116.34-42.95 124.84-42.95 117.99-14.15 117.99 0ZM126.99 0L126.99-42.95 138.34-42.95Q143.49-42.95 145.69-39.63 147.89-36.3 147.89-29.9L147.89-29.9Q147.89-23.5 145.94-20.25 143.99-17 138.94-17L138.94-17 135.44-17 135.44 0 126.99 0ZM135.44-24.75L135.94-24.75Q137.49-24.75 138.21-25.33 138.94-25.9 139.16-26.98 139.39-28.05 139.39-30.05L139.39-30.05Q139.39-32.75 138.78-33.95 138.19-35.15 136.39-35.15L136.39-35.15 135.44-35.15 135.44-24.75ZM160.53 0.4Q155.23 0.4 152.66-2.6 150.08-5.6 150.08-11.5L150.08-11.5 150.08-42.95 158.43-42.95 158.43-11.85Q158.43-9.8 158.83-8.65 159.23-7.5 160.53-7.5L160.53-7.5Q161.83-7.5 162.23-8.63 162.63-9.75 162.63-11.85L162.63-11.85 162.63-42.95 170.98-42.95 170.98-11.5Q170.98-5.6 168.41-2.6 165.83 0.4 160.53 0.4L160.53 0.4ZM191.73 0L174.28 0 174.28-42.95 182.88-42.95 182.88-7.3 191.73-7.3 191.73 0ZM204.33 0.4Q198.48 0.4 195.88-2.5 193.28-5.4 193.28-11.85L193.28-11.85 193.28-16.05 201.73-16.05 201.73-10.7Q201.73-7.5 203.78-7.5L203.78-7.5Q204.93-7.5 205.38-8.18 205.83-8.85 205.83-10.45L205.83-10.45Q205.83-12.55 205.33-13.93 204.83-15.3 204.05-16.23 203.28-17.15 201.28-19.1L201.28-19.1 197.58-22.8Q193.28-27 193.28-32.1L193.28-32.1Q193.28-37.6 195.8-40.48 198.33-43.35 203.18-43.35L203.18-43.35Q208.98-43.35 211.53-40.28 214.08-37.2 214.08-30.65L214.08-30.65 205.33-30.65 205.28-33.6Q205.28-34.45 204.8-34.95 204.33-35.45 203.48-35.45L203.48-35.45Q202.48-35.45 201.98-34.9 201.48-34.35 201.48-33.4L201.48-33.4Q201.48-31.3 203.88-29.05L203.88-29.05 208.88-24.25Q210.63-22.55 211.78-21.03 212.93-19.5 213.63-17.43 214.33-15.35 214.33-12.5L214.33-12.5Q214.33-6.15 212-2.88 209.68 0.4 204.33 0.4L204.33 0.4ZM234.93 0L217.18 0 217.18-42.95 234.38-42.95 234.38-34.65 225.93-34.65 225.93-26.3 234.03-26.3 234.03-18.2 225.93-18.2 225.93-8.35 234.93-8.35 234.93 0ZM245.97 0L237.22 0 237.22-7.3 245.97-7.3 245.97 0ZM249.22 0L249.22-42.95 260.57-42.95Q265.72-42.95 267.92-39.63 270.12-36.3 270.12-29.9L270.12-29.9Q270.12-23.5 268.17-20.25 266.22-17 261.17-17L261.17-17 257.67-17 257.67 0 249.22 0ZM257.67-24.75L258.17-24.75Q259.72-24.75 260.44-25.33 261.17-25.9 261.39-26.98 261.62-28.05 261.62-30.05L261.62-30.05Q261.62-32.75 261.02-33.95 260.42-35.15 258.62-35.15L258.62-35.15 257.67-35.15 257.67-24.75ZM272.82 0L272.82-42.95 286.02-42.95Q289.17-42.95 290.89-41.53 292.62-40.1 293.22-37.52 293.82-34.95 293.82-30.95L293.82-30.95Q293.82-27.3 292.87-25.25 291.92-23.2 289.57-22.4L289.57-22.4Q291.52-22 292.39-20.45 293.27-18.9 293.27-16.25L293.27-16.25 293.17 0 284.77 0 284.77-16.8Q284.77-18.6 284.07-19.1 283.37-19.6 281.52-19.6L281.52-19.6 281.52 0 272.82 0ZM281.57-27.05L283.62-27.05Q285.42-27.05 285.42-30.95L285.42-30.95Q285.42-32.65 285.27-33.5 285.12-34.35 284.72-34.68 284.32-35 283.57-35L283.57-35 281.57-35 281.57-27.05ZM306.92 0.4Q301.72 0.4 299.02-2.78 296.32-5.95 296.32-11.7L296.32-11.7 296.32-32.15Q296.32-37.7 299.02-40.53 301.72-43.35 306.92-43.35L306.92-43.35Q312.12-43.35 314.82-40.53 317.52-37.7 317.52-32.15L317.52-32.15 317.52-11.7Q317.52-5.9 314.82-2.75 312.12 0.4 306.92 0.4L306.92 0.4ZM306.92-7.5Q308.07-7.5 308.47-8.5 308.87-9.5 308.87-11.3L308.87-11.3 308.87-32.3Q308.87-33.7 308.49-34.58 308.12-35.45 306.97-35.45L306.97-35.45Q304.82-35.45 304.82-32.2L304.82-32.2 304.82-11.25Q304.82-9.4 305.27-8.45 305.72-7.5 306.92-7.5L306.92-7.5Z" opacity="1" transform="matrix(1,0,0,1,0,0)" fill="#113f67" class="wordmark-text-0" data-fill-palette-color="primary" id="text-0"></path></svg></g></svg></g><g transform="matrix(1,0,0,1,73.1712,67.76194869000476)"><svg viewBox="0 0 249.17759999999998 17.414236745372488" height="17.414236745372488" width="249.17759999999998"><g transform="matrix(1,0,0,1,0,0)"><svg width="249.17759999999998" viewBox="1.55 -40.5 764.37 53.43" height="17.414236745372488" data-palette-color="#87c0cd"><path d="M6.15 0L1.55 0 12.13-32.5 13-37.5 18.43-38 30.88 0 25.88 0 22.18-11.25 9.8-11.25 6.15 0ZM16.88-27.5L15.98-34 15.08-27.5 11.03-15 20.95-15 16.88-27.5ZM42.25-21.1L42.25 0 37.5 0 37.5-27.5 42.25-28 42.25-23.43 43.77-26.1Q44.22-26.4 44.92-26.73 45.62-27.05 46.48-27.31 47.35-27.58 48.35-27.75 49.35-27.93 50.37-27.93L50.37-27.93Q52.35-27.93 53.71-27.29 55.07-26.65 55.92-25.45 56.77-24.25 57.14-22.55 57.5-20.85 57.5-18.75L57.5-18.75 57.5 0 52.75 0 52.75-18.75Q52.75-20.1 52.56-21.08 52.37-22.05 51.91-22.69 51.45-23.33 50.67-23.63 49.9-23.93 48.75-23.93L48.75-23.93Q47.9-23.93 47.02-23.66 46.15-23.4 45.31-22.99 44.47-22.58 43.69-22.08 42.9-21.58 42.25-21.1L42.25-21.1ZM72.25-23.5L72.25-9.4Q72.25-7.75 72.43-6.64 72.62-5.53 72.98-4.84 73.34-4.15 73.88-3.86 74.42-3.58 75.12-3.58L75.12-3.58Q75.67-3.58 76.12-3.64 76.57-3.7 76.9-3.8L76.9-3.8Q77.27-3.9 77.57-4.03L77.57-4.03 79.3-1Q79.09-0.8 78.66-0.56 78.22-0.33 77.62-0.1 77.02 0.13 76.26 0.28 75.5 0.43 74.62 0.43L74.62 0.43Q72.37 0.43 70.97-0.4 69.57-1.23 68.8-2.65 68.02-4.08 67.76-5.96 67.5-7.85 67.5-10L67.5-10 67.5-23.5 63.75-23.5 63.75-27.5 67.5-27.5 67.5-32.73 72.12-35.5 72.12-27.5 80.62-27.5 80.12-23.5 72.25-23.5ZM92.24-26.88L92.24 0 87.49 0 87.49-26.38 92.24-26.88ZM87.34-32.5L87.34-37.5 92.39-37.5 92.39-32.5 87.34-32.5ZM107.24-23.5L107.24-9.4Q107.24-7.75 107.43-6.64 107.62-5.53 107.98-4.84 108.34-4.15 108.88-3.86 109.42-3.58 110.12-3.58L110.12-3.58Q110.67-3.58 111.12-3.64 111.57-3.7 111.89-3.8L111.89-3.8Q112.27-3.9 112.57-4.03L112.57-4.03 114.29-1Q114.09-0.8 113.65-0.56 113.22-0.33 112.62-0.1 112.02 0.13 111.25 0.28 110.49 0.43 109.62 0.43L109.62 0.43Q107.37 0.43 105.97-0.4 104.57-1.23 103.79-2.65 103.02-4.08 102.75-5.96 102.49-7.85 102.49-10L102.49-10 102.49-23.5 98.74-23.5 98.74-27.5 102.49-27.5 102.49-32.73 107.12-35.5 107.12-27.5 115.62-27.5 115.12-23.5 107.24-23.5ZM134.26-23.7L134.26-23.7Q133.26-23.7 132.29-23.3 131.31-22.9 130.41-22.23 129.51-21.55 128.71-20.65 127.91-19.75 127.24-18.75L127.24-18.75 127.24 0 122.49 0 122.49-27.5 127.24-28 127.24-22.38 129.74-26.75Q130.06-26.95 130.55-27.16 131.04-27.38 131.66-27.54 132.29-27.7 133-27.81 133.71-27.93 134.46-27.93L134.46-27.93Q135.59-27.93 136.35-27.73 137.11-27.53 137.49-27.35L137.49-27.35 137.24-23.2Q136.86-23.33 136.11-23.51 135.36-23.7 134.26-23.7ZM157.74-6.45L157.74-27.5 162.49-28 162.49 0 157.74 0 157.74-4.08 156.21-1.4Q155.76-1.1 155.15-0.78 154.54-0.45 153.76-0.19 152.99 0.08 152.06 0.25 151.14 0.43 150.11 0.43L150.11 0.43Q148.11 0.43 146.67-0.3 145.24-1.03 144.31-2.33 143.39-3.63 142.94-5.41 142.49-7.2 142.49-9.3L142.49-9.3 142.49-27.5 147.24-28 147.24-9.3Q147.24-6.6 148.32-5.09 149.41-3.58 151.74-3.58L151.74-3.58Q152.59-3.58 153.41-3.85 154.24-4.13 155.01-4.55 155.79-4.98 156.47-5.48 157.16-5.98 157.74-6.45L157.74-6.45ZM185.46-26.18L184.01-22.98Q183.56-23.2 182.93-23.43 182.31-23.65 181.63-23.83 180.96-24 180.27-24.1 179.58-24.2 178.96-24.2L178.96-24.2Q176.31-24.2 175.21-23.41 174.11-22.63 174.11-21.05L174.11-21.05Q174.11-20 174.83-19.31 175.56-18.63 176.71-18.07 177.86-17.53 179.27-17.04 180.68-16.55 182.03-15.88L182.03-15.88Q183.01-15.4 184.01-14.75 185.01-14.1 185.81-13.23 186.61-12.35 187.11-11.25 187.61-10.15 187.61-8.78L187.61-8.78Q187.61-6.25 186.76-4.5 185.91-2.75 184.45-1.66 182.98-0.58 181.02-0.08 179.06 0.43 176.83 0.43L176.83 0.43Q175.98 0.43 174.91 0.26 173.83 0.1 172.76-0.19 171.68-0.48 170.71-0.88 169.73-1.28 169.08-1.73L169.08-1.73 170.73-5.03Q171.33-4.73 172.16-4.46 172.98-4.2 173.86-4 174.73-3.8 175.6-3.69 176.46-3.58 177.13-3.58L177.13-3.58Q178.28-3.58 179.35-3.81 180.41-4.05 181.22-4.58 182.03-5.1 182.52-5.94 183.01-6.78 183.01-8L183.01-8Q183.01-8.93 182.62-9.63 182.23-10.33 181.57-10.86 180.91-11.4 180.03-11.85 179.16-12.3 178.18-12.71 177.21-13.13 176.18-13.56 175.16-14 174.23-14.53L174.23-14.53Q173.36-15.03 172.55-15.63 171.73-16.23 171.11-16.98 170.48-17.73 170.11-18.66 169.73-19.6 169.73-20.8L169.73-20.8Q169.73-22.7 170.41-24.06 171.08-25.43 172.31-26.28 173.53-27.13 175.26-27.53 176.98-27.93 179.06-27.93L179.06-27.93Q180.01-27.93 180.93-27.78 181.86-27.63 182.71-27.39 183.56-27.15 184.26-26.83 184.96-26.5 185.46-26.18L185.46-26.18ZM199.73-23.5L199.73-9.4Q199.73-7.75 199.92-6.64 200.11-5.53 200.47-4.84 200.83-4.15 201.37-3.86 201.91-3.58 202.61-3.58L202.61-3.58Q203.16-3.58 203.61-3.64 204.06-3.7 204.38-3.8L204.38-3.8Q204.76-3.9 205.06-4.03L205.06-4.03 206.78-1Q206.58-0.8 206.14-0.56 205.71-0.33 205.11-0.1 204.51 0.13 203.74 0.28 202.98 0.43 202.11 0.43L202.11 0.43Q199.86 0.43 198.46-0.4 197.06-1.23 196.28-2.65 195.51-4.08 195.24-5.96 194.98-7.85 194.98-10L194.98-10 194.98-23.5 191.23-23.5 191.23-27.5 194.98-27.5 194.98-32.73 199.61-35.5 199.61-27.5 208.11-27.5 207.61-23.5 199.73-23.5ZM237.48 0L232.23 0 232.23-32.25 231.48-37.5 237.48-38 237.48 0ZM252.22-21.1L252.22 0 247.47 0 247.47-27.5 252.22-28 252.22-23.43 253.75-26.1Q254.2-26.4 254.9-26.73 255.6-27.05 256.46-27.31 257.32-27.58 258.32-27.75 259.32-27.93 260.35-27.93L260.35-27.93Q262.32-27.93 263.69-27.29 265.05-26.65 265.9-25.45 266.75-24.25 267.11-22.55 267.47-20.85 267.47-18.75L267.47-18.75 267.47 0 262.72 0 262.72-18.75Q262.72-20.1 262.54-21.08 262.35-22.05 261.89-22.69 261.42-23.33 260.65-23.63 259.87-23.93 258.72-23.93L258.72-23.93Q257.87-23.93 257-23.66 256.12-23.4 255.29-22.99 254.45-22.58 253.66-22.08 252.87-21.58 252.22-21.1L252.22-21.1ZM290.45-26.18L289-22.98Q288.55-23.2 287.92-23.43 287.3-23.65 286.62-23.83 285.95-24 285.26-24.1 284.57-24.2 283.95-24.2L283.95-24.2Q281.3-24.2 280.2-23.41 279.1-22.63 279.1-21.05L279.1-21.05Q279.1-20 279.82-19.31 280.55-18.63 281.7-18.07 282.85-17.53 284.26-17.04 285.67-16.55 287.02-15.88L287.02-15.88Q288-15.4 289-14.75 290-14.1 290.8-13.23 291.6-12.35 292.1-11.25 292.6-10.15 292.6-8.78L292.6-8.78Q292.6-6.25 291.75-4.5 290.9-2.75 289.43-1.66 287.97-0.58 286.01-0.08 284.05 0.43 281.82 0.43L281.82 0.43Q280.97 0.43 279.9 0.26 278.82 0.1 277.75-0.19 276.67-0.48 275.7-0.88 274.72-1.28 274.07-1.73L274.07-1.73 275.72-5.03Q276.32-4.73 277.15-4.46 277.97-4.2 278.85-4 279.72-3.8 280.58-3.69 281.45-3.58 282.12-3.58L282.12-3.58Q283.27-3.58 284.33-3.81 285.4-4.05 286.21-4.58 287.02-5.1 287.51-5.94 288-6.78 288-8L288-8Q288-8.93 287.61-9.63 287.22-10.33 286.56-10.86 285.9-11.4 285.02-11.85 284.15-12.3 283.17-12.71 282.2-13.13 281.17-13.56 280.15-14 279.22-14.53L279.22-14.53Q278.35-15.03 277.53-15.63 276.72-16.23 276.1-16.98 275.47-17.73 275.1-18.66 274.72-19.6 274.72-20.8L274.72-20.8Q274.72-22.7 275.4-24.06 276.07-25.43 277.3-26.28 278.52-27.13 280.25-27.53 281.97-27.93 284.05-27.93L284.05-27.93Q285-27.93 285.92-27.78 286.85-27.63 287.7-27.39 288.55-27.15 289.25-26.83 289.95-26.5 290.45-26.18L290.45-26.18ZM304.72-26.88L304.72 0 299.97 0 299.97-26.38 304.72-26.88ZM299.82-32.5L299.82-37.5 304.87-37.5 304.87-32.5 299.82-32.5ZM330.22 0.78L330.22-3.38 328.04-0.63Q327.82-0.48 327.4-0.3 326.99-0.13 326.39 0.04 325.79 0.2 324.99 0.31 324.19 0.43 323.22 0.43L323.22 0.43Q320.94 0.43 318.98-0.69 317.02-1.8 315.57-3.71 314.12-5.63 313.29-8.19 312.47-10.75 312.47-13.63L312.47-13.63Q312.47-16.55 313.22-19.15 313.97-21.75 315.47-23.7 316.97-25.65 319.19-26.79 321.42-27.93 324.37-27.93L324.37-27.93Q325.29-27.93 326.18-27.85 327.07-27.78 327.84-27.5L327.84-27.5 330.22-23.95 330.22-28 334.97-27.5 334.97 1.15Q334.97 3.6 334.13 5.75 333.29 7.9 331.72 9.49 330.14 11.08 327.88 12 325.62 12.93 322.77 12.93L322.77 12.93Q320.79 12.93 319.3 12.43 317.82 11.93 316.77 11.33L316.77 11.33Q315.57 10.63 314.69 9.7L314.69 9.7 317.14 6.95Q317.87 7.5 318.77 7.95L318.77 7.95Q319.54 8.33 320.57 8.63 321.59 8.93 322.79 8.93L322.79 8.93Q324.34 8.93 325.69 8.29 327.04 7.65 328.05 6.55 329.07 5.45 329.64 3.96 330.22 2.48 330.22 0.78L330.22 0.78ZM330.22-6.88L330.22-20.85Q329.54-21.7 328.64-22.38L328.64-22.38Q327.87-22.95 326.77-23.44 325.67-23.93 324.24-23.93L324.24-23.93Q322.74-23.93 321.64-23.45 320.54-22.98 319.75-22.18 318.97-21.38 318.48-20.31 317.99-19.25 317.7-18.06 317.42-16.88 317.32-15.66 317.22-14.45 317.22-13.33L317.22-13.33Q317.22-11.2 317.68-9.41 318.14-7.63 318.98-6.34 319.82-5.05 321-4.33 322.19-3.6 323.62-3.6L323.62-3.6Q324.89-3.6 325.89-3.88 326.89-4.15 327.69-4.61 328.49-5.08 329.1-5.66 329.72-6.25 330.22-6.88L330.22-6.88ZM349.71-20.83L349.71 0 344.96 0 344.96-35 344.46-40 349.71-40.5 349.71-23.75 351.94-26.63Q352.91-27.18 354.26-27.55 355.61-27.93 357.21-27.93L357.21-27.93Q360.96-27.93 362.96-25.43 364.96-22.93 364.96-18.25L364.96-18.25 364.96 0 360.21 0 360.21-17.73Q360.21-19.4 359.93-20.58 359.64-21.75 359.11-22.5 358.59-23.25 357.81-23.59 357.04-23.93 356.06-23.93L356.06-23.93Q355.09-23.93 354.16-23.69 353.24-23.45 352.41-23.04 351.59-22.63 350.9-22.06 350.21-21.5 349.71-20.83L349.71-20.83ZM379.71-23.5L379.71-9.4Q379.71-7.75 379.9-6.64 380.09-5.53 380.45-4.84 380.81-4.15 381.35-3.86 381.89-3.58 382.59-3.58L382.59-3.58Q383.14-3.58 383.59-3.64 384.04-3.7 384.36-3.8L384.36-3.8Q384.74-3.9 385.04-4.03L385.04-4.03 386.76-1Q386.56-0.8 386.12-0.56 385.69-0.33 385.09-0.1 384.49 0.13 383.72 0.28 382.96 0.43 382.09 0.43L382.09 0.43Q379.84 0.43 378.44-0.4 377.04-1.23 376.26-2.65 375.49-4.08 375.22-5.96 374.96-7.85 374.96-10L374.96-10 374.96-23.5 371.21-23.5 371.21-27.5 374.96-27.5 374.96-32.73 379.59-35.5 379.59-27.5 388.09-27.5 387.59-23.5 379.71-23.5ZM392.51-3.33L392.51-3.33Q392.51-4.05 392.8-4.71 393.08-5.38 393.6-5.85 394.11-6.33 394.78-6.63 395.46-6.93 396.21-6.93L396.21-6.93Q396.93-6.93 397.6-6.66 398.26-6.4 398.77-5.9 399.28-5.4 399.6-4.64 399.91-3.88 399.91-2.9L399.91-2.9Q399.91-1.58 399.75-0.34 399.58 0.9 399.07 2.18 398.56 3.45 397.61 4.78 396.66 6.1 395.11 7.53L395.11 7.53 393.81 6.95Q394.38 5.85 394.83 4.67L394.83 4.67Q395.21 3.7 395.52 2.54 395.83 1.38 395.83 0.28L395.83 0.28Q395.21 0.25 394.61 0 394.01-0.25 393.53-0.69 393.06-1.13 392.78-1.8 392.51-2.48 392.51-3.33ZM426.1 0L421.5 0 432.08-32.5 432.95-37.5 438.38-38 450.83 0 445.83 0 442.13-11.25 429.75-11.25 426.1 0ZM436.83-27.5L435.93-34 435.03-27.5 430.98-15 440.9-15 436.83-27.5ZM462.2-20.83L462.2 0 457.45 0 457.45-35 456.95-40 462.2-40.5 462.2-23.75 464.43-26.63Q465.4-27.18 466.75-27.55 468.1-27.93 469.7-27.93L469.7-27.93Q473.45-27.93 475.45-25.43 477.45-22.93 477.45-18.25L477.45-18.25 477.45 0 472.7 0 472.7-17.73Q472.7-19.4 472.41-20.58 472.13-21.75 471.6-22.5 471.08-23.25 470.3-23.59 469.53-23.93 468.55-23.93L468.55-23.93Q467.58-23.93 466.65-23.69 465.73-23.45 464.9-23.04 464.08-22.63 463.39-22.06 462.7-21.5 462.2-20.83L462.2-20.83ZM503.87-5.63L506.6-3.23Q505.82-2.43 504.9-1.75 503.97-1.07 502.85-0.59 501.72-0.1 500.36 0.16 499 0.43 497.32 0.43L497.32 0.43Q494 0.43 491.65-0.75 489.3-1.93 487.81-3.9 486.32-5.88 485.64-8.43 484.95-10.98 484.95-13.75L484.95-13.75Q484.95-15.53 485.27-17.26 485.6-19 486.25-20.58 486.9-22.15 487.87-23.5 488.85-24.85 490.15-25.83 491.45-26.8 493.09-27.36 494.72-27.93 496.7-27.93L496.7-27.93Q499.4-27.93 501.37-27.05 503.35-26.18 504.65-24.6 505.95-23.03 506.57-20.83 507.2-18.63 507.2-15.95L507.2-15.95Q507.2-15.18 507.15-14.25 507.1-13.33 507-12.5L507-12.5 489.7-12.5Q489.7-10.63 490.21-9 490.72-7.38 491.65-6.16 492.57-4.95 493.89-4.26 495.2-3.58 496.82-3.58L496.82-3.58Q498.42-3.58 499.61-3.81 500.8-4.05 501.65-4.39 502.5-4.73 503.04-5.08 503.57-5.43 503.87-5.63L503.87-5.63ZM493.32-16.25L502.45-16.25Q502.47-16.53 502.49-16.8 502.5-17.07 502.5-17.35L502.5-17.35Q502.5-18.78 502.17-19.98 501.85-21.18 501.19-22.06 500.52-22.95 499.5-23.45 498.47-23.95 497.07-23.95L497.07-23.95Q495.4-23.95 494.21-23.41 493.02-22.88 492.21-22.04 491.4-21.2 490.91-20.2 490.42-19.2 490.17-18.3L490.17-18.3 488.87-15.58 493.32-16.25ZM532.45-4.5L532.95 0 527.7 0 527.7-4.05 525.35-1.25Q524.92-0.93 524.37-0.63 523.82-0.33 523.26-0.09 522.7 0.15 522.13 0.29 521.57 0.43 521.1 0.43L521.1 0.43Q519.22 0.43 517.51-0.16 515.8-0.75 514.51-1.89 513.22-3.03 512.46-4.71 511.7-6.4 511.7-8.6L511.7-8.6Q511.7-10.93 512.63-12.64 513.57-14.35 515.03-15.49 516.5-16.63 518.3-17.19 520.1-17.75 521.82-17.75L521.82-17.75Q523.25-17.75 524.33-17.6 525.42-17.45 526.17-17.25L526.17-17.25Q527.05-17.03 527.7-16.75L527.7-16.75 527.7-17.63Q527.7-19.1 527.52-20.28 527.35-21.45 526.81-22.26 526.27-23.08 525.26-23.5 524.25-23.93 522.57-23.93L522.57-23.93Q521.22-23.93 519.97-23.74 518.72-23.55 517.75-23.33L517.75-23.33Q516.6-23.05 515.62-22.75L515.62-22.75 513.82-26.1Q514.92-26.6 516.32-27L516.32-27Q517.52-27.35 519.17-27.64 520.82-27.93 522.82-27.93L522.82-27.93Q525.7-27.93 527.57-27.15 529.45-26.38 530.52-24.98 531.6-23.58 532.02-21.61 532.45-19.65 532.45-17.25L532.45-17.25 532.45-4.5ZM527.7-6.85L527.7-13.33Q527-13.43 526.2-13.53L526.2-13.53Q525.52-13.6 524.65-13.68 523.77-13.75 522.82-13.75L522.82-13.75Q521.42-13.75 520.26-13.48 519.1-13.2 518.25-12.59 517.4-11.98 516.92-11 516.45-10.03 516.45-8.63L516.45-8.63Q516.45-7.5 516.82-6.58 517.2-5.65 517.85-4.98 518.5-4.3 519.38-3.94 520.27-3.58 521.3-3.58L521.3-3.58Q521.77-3.58 522.31-3.71 522.85-3.85 523.38-4.08 523.92-4.3 524.46-4.6 525-4.9 525.47-5.2L525.47-5.2Q526.6-5.93 527.7-6.85L527.7-6.85ZM556.44-23.5L552.59-23.5Q550.29-23.5 548.62-22.64 546.94-21.78 545.84-20.3 544.74-18.82 544.22-16.82 543.69-14.83 543.69-12.55L543.69-12.55Q543.69-10.33 544.22-8.65 544.74-6.98 545.58-5.85 546.42-4.73 547.49-4.16 548.57-3.6 549.69-3.6L549.69-3.6Q550.87-3.6 551.88-4 552.89-4.4 553.74-5 554.59-5.6 555.27-6.31 555.94-7.03 556.44-7.65L556.44-7.65 556.44-23.5ZM561.69 0L556.44 0 556.44-4.05 554.07-1.23Q553.62-0.93 553.09-0.63 552.57-0.33 551.92-0.1 551.27 0.13 550.48 0.28 549.69 0.43 548.72 0.43L548.72 0.43Q546.67 0.43 544.89-0.59 543.12-1.6 541.8-3.4 540.49-5.2 539.73-7.69 538.97-10.18 538.97-13.15L538.97-13.15Q538.97-16.15 539.93-18.76 540.89-21.38 542.67-23.33 544.44-25.28 546.96-26.39 549.47-27.5 552.57-27.5L552.57-27.5 556.44-27.5 556.44-40.5 561.19-40 561.19-4.5 561.69 0ZM598.66 0.43L598.66 0.43Q595.89 0.43 593.6-0.66 591.31-1.75 589.66-3.66 588.01-5.58 587.1-8.19 586.19-10.8 586.19-13.83L586.19-13.83Q586.19-16.85 587.06-19.44 587.94-22.03 589.56-23.91 591.19-25.8 593.5-26.86 595.81-27.93 598.66-27.93L598.66-27.93Q601.44-27.93 603.74-26.86 606.04-25.8 607.69-23.91 609.34-22.03 610.26-19.44 611.19-16.85 611.19-13.83L611.19-13.83Q611.19-10.8 610.3-8.19 609.41-5.58 607.79-3.66 606.16-1.75 603.84-0.66 601.51 0.43 598.66 0.43ZM606.44-13.15L606.44-13.15Q606.44-15.18 606-17.13 605.56-19.07 604.61-20.61 603.66-22.15 602.16-23.1 600.66-24.05 598.56-24.05L598.56-24.05Q596.56-24.05 595.11-23.23 593.66-22.4 592.74-21.03 591.81-19.65 591.37-17.9 590.94-16.15 590.94-14.3L590.94-14.3Q590.94-12.28 591.37-10.33 591.81-8.38 592.75-6.85 593.69-5.33 595.17-4.39 596.66-3.45 598.76-3.45L598.76-3.45Q600.74-3.45 602.19-4.28 603.64-5.1 604.59-6.46 605.54-7.83 605.99-9.58 606.44-11.33 606.44-13.15ZM614.93-23.5L614.93-27.5 618.68-27.5 618.68-31.38Q618.68-33.5 619.15-35.18 619.61-36.85 620.61-38.01 621.61-39.18 623.17-39.8 624.73-40.43 626.93-40.43L626.93-40.43Q628.06-40.43 629-40.24 629.93-40.05 630.72-39.75 631.51-39.45 632.17-39.05 632.83-38.65 633.36-38.23L633.36-38.23 631.23-35.27Q630.71-35.65 629.78-36.04 628.86-36.43 627.73-36.43L627.73-36.43Q625.58-36.43 624.45-35.21 623.31-34 623.31-31.13L623.31-31.13 623.31-27.5 630.56-27.5 630.06-23.5 623.43-23.5 623.43 0 618.68 0 618.68-23.5 614.93-23.5ZM668.8 0L663.55 0 663.55-33.5 653.18-33.5 653.18-37.5 679.05-37.5 679.05-33.5 668.8-33.5 668.8 0ZM690.93-26.88L690.93 0 686.18 0 686.18-26.38 690.93-26.88ZM686.03-32.5L686.03-37.5 691.08-37.5 691.08-32.5 686.03-32.5ZM705.92-21.1L705.92 0 701.17 0 701.17-27.5 705.92-28 705.92-23.43 707.45-26.1Q707.9-26.4 708.57-26.73 709.25-27.05 710.1-27.31 710.95-27.58 711.92-27.75 712.9-27.93 713.92-27.93L713.92-27.93Q716.72-27.93 718.47-26.56 720.22-25.2 720.75-23.08L720.75-23.08 722.65-26Q723.52-26.7 725.12-27.31 726.72-27.93 728.8-27.93L728.8-27.93Q730.7-27.93 732.05-27.29 733.4-26.65 734.26-25.45 735.12-24.25 735.52-22.55 735.92-20.85 735.92-18.75L735.92-18.75 735.92 0 731.17 0 731.17-18.5Q731.17-19.85 730.99-20.86 730.8-21.88 730.34-22.56 729.87-23.25 729.1-23.59 728.32-23.93 727.17-23.93L727.17-23.93Q726.45-23.93 725.66-23.68 724.87-23.43 724.07-23.01 723.27-22.6 722.51-22.06 721.75-21.53 721.07-20.98L721.07-20.98Q721.15-20.25 721.16-19.76 721.17-19.28 721.17-18.5L721.17-18.5 721.17 0 716.42 0 716.42-18.5Q716.42-21.2 715.52-22.56 714.62-23.93 712.3-23.93L712.3-23.93Q711.55-23.93 710.7-23.7 709.85-23.48 709.01-23.08 708.17-22.68 707.37-22.16 706.57-21.65 705.92-21.1L705.92-21.1ZM762.6-5.63L765.32-3.23Q764.55-2.43 763.62-1.75 762.7-1.07 761.57-0.59 760.45-0.1 759.08 0.16 757.72 0.43 756.05 0.43L756.05 0.43Q752.72 0.43 750.37-0.75 748.02-1.93 746.53-3.9 745.05-5.88 744.36-8.43 743.67-10.98 743.67-13.75L743.67-13.75Q743.67-15.53 744-17.26 744.32-19 744.97-20.58 745.62-22.15 746.6-23.5 747.57-24.85 748.87-25.83 750.17-26.8 751.81-27.36 753.45-27.93 755.42-27.93L755.42-27.93Q758.12-27.93 760.1-27.05 762.07-26.18 763.37-24.6 764.67-23.03 765.3-20.83 765.92-18.63 765.92-15.95L765.92-15.95Q765.92-15.18 765.87-14.25 765.82-13.33 765.72-12.5L765.72-12.5 748.42-12.5Q748.42-10.63 748.93-9 749.45-7.38 750.37-6.16 751.3-4.95 752.61-4.26 753.92-3.58 755.55-3.58L755.55-3.58Q757.15-3.58 758.33-3.81 759.52-4.05 760.37-4.39 761.22-4.73 761.76-5.08 762.3-5.43 762.6-5.63L762.6-5.63ZM752.05-16.25L761.17-16.25Q761.2-16.53 761.21-16.8 761.22-17.07 761.22-17.35L761.22-17.35Q761.22-18.78 760.9-19.98 760.57-21.18 759.91-22.06 759.25-22.95 758.22-23.45 757.2-23.95 755.8-23.95L755.8-23.95Q754.12-23.95 752.93-23.41 751.75-22.88 750.93-22.04 750.12-21.2 749.63-20.2 749.15-19.2 748.9-18.3L748.9-18.3 747.6-15.58 752.05-16.25Z" opacity="1" transform="matrix(1,0,0,1,0,0)" fill="#87c0cd" class="slogan-text-1" data-fill-palette-color="secondary" id="text-1"></path></svg></g></svg></g></svg></g></svg></g><g><svg viewBox="0 0 96.52506038278692 96.52506038278692" height="96.52506038278692" width="96.52506038278692"><g><svg xmlns="http://www.w3.org/2000/svg" xmlns:xlink="http://www.w3.org/1999/xlink" version="1.0" x="0" y="0" viewBox="20 20 60 60" enable-background="new 0 0 100 100" xml:space="preserve" height="96.52506038278692" width="96.52506038278692" class="icon-icon-0" data-fill-palette-color="accent" id="icon-0"><path d="M20 26.667c3.682 0 6.667 2.988 6.667 6.667v30C26.667 72.539 34.128 80 43.333 80 52.539 80 60 72.539 60 63.334V40c0-1.842 1.491-3.333 3.333-3.333 1.843 0 3.334 1.491 3.334 3.333v16.666C66.667 64.023 72.637 70 80 70v-6.666c-3.682 0-6.667-2.988-6.667-6.668V40c0-5.524-4.479-10-10-10-5.521 0-10 4.476-10 10v23.334c0 5.523-4.479 10-10 10-5.521 0-10-4.477-10-10v-30C33.333 25.973 27.363 20 20 20V26.667z" fill="#87c0cd" data-fill-palette-color="accent"></path></svg></g></svg></g></svg></g><defs></defs></svg><rect width="395.52" height="75.60116843368566" fill="none" stroke="none" visibility="hidden"></rect></g></svg></g></svg>